<svg width="125" height="138" viewBox="0 0 125 138" fill="none" xmlns="http://www.w3.org/2000/svg">
<path d="M3.16247 1C-0.339267 9.53548 1.40538 22.2963 1.64976 31.3382C1.84904 38.7114 3.53637 45.9455 5.5 53C7.31876 59.5341 10.0146 66.8215 12.5749 73.1058C18.7137 88.1738 34.8069 99.3452 48.2076 107.31C58.1558 113.222 67.3578 116.886 79.05 117.899C92.5146 119.065 109.115 119.247 119.641 109.243C132.779 96.7573 115.936 79.7819 103.253 76.9716C84.4506 72.8051 67.8706 83.5347 66.108 103.276C65.5326 109.721 66.206 117.783 70.6461 122.857C75.4382 128.334 84.2116 130.225 90.9836 131.513C101.823 133.575 113.684 133.645 124.179 137.144" stroke="#C4C4C4" stroke-linecap="round"/>
</svg>
