<svg width="2100" height="1120" viewBox="0 0 2100 1120" fill="none" preserveAspectRatio="none" xmlns="http://www.w3.org/2000/svg">
<path d="M2099 220.296C2017.39 259.938 1838.27 330.303 1774.65 294.625C1695.13 250.027 1770.27 60.8264 1818.48 23.6619C1866.7 -13.5025 1906.14 -19.584 1849.16 120.965C1792.18 261.515 1705.15 384.495 1670.71 369.629C1636.27 354.763 1762.13 156.778 1632.52 171.644C1502.9 186.51 1516.05 369.629 1542.35 369.629C1568.65 369.629 1752.11 111.505 1740.21 77.719C1728.32 43.9332 1481.61 119.614 1305.04 276.38C1128.46 433.147 1008.87 380.441 1060.84 294.625C1112.81 208.808 1125.96 165.562 1093.4 152.724C1060.84 139.885 122.233 228.404 15.1605 436.525C-91.9118 644.646 438.44 579.102 591.222 648.025C744.003 716.948 604.997 962.909 808.497 983.181C1012 1003.45 1325.7 866.957 1558.63 861.552C1744.97 857.227 1978.99 1031.38 2072.7 1119" stroke="#C4C4C4" stroke-width="2"/>
</svg>
