<svg width="1870" height="533" viewBox="0 0 1870 533" fill="none" xmlns="http://www.w3.org/2000/svg">
<path d="M25.6734 141.101C-7.272 93.7314 -31.7286 -0.552545 134.009 1.26919C334.07 3.46822 433.775 104.652 376.404 176.338M376.404 176.338C374.365 178.886 372.128 181.396 369.69 183.864C298.643 255.758 270.973 87.3088 300.156 89.2546C310.147 89.9207 337.687 125.703 376.404 176.338ZM376.404 176.338C450.78 273.609 566.404 425.691 678.103 488.934C847.949 585.097 971.407 268.051 1258.46 383.58C1545.51 499.109 1663 636.187 1680.57 410.098C1694.63 229.227 1812.02 207.679 1868.95 219.513" stroke="#C4C4C4" stroke-width="2"/>
</svg>
