<svg width="258" height="102" viewBox="0 0 258 102" fill="none" xmlns="http://www.w3.org/2000/svg">
<path d="M1 1C3.93952 1.29395 7.01692 3.18239 9.65606 4.36158C14.3296 6.44974 19.373 7.02481 24.3629 7.97527C44.9201 11.8909 65.7966 14.9126 86.6782 16.5053C113.976 18.5873 141.465 18.6827 168.827 18.3962C174.664 18.335 188.492 17.745 188.492 9.02576C188.492 3.65573 173.345 5.51606 170.802 6.42054C161.912 9.58131 158.525 18.5702 162.944 27.0522C167.395 35.5953 177.693 39.2995 185.887 43.1037C195.438 47.5381 205.044 51.8527 214.628 56.2139C222.909 59.982 231.972 63.4567 239.21 69.1139C248.783 76.5963 256.648 88.459 256.648 100.839" stroke="#C4C4C4" stroke-linecap="round"/>
</svg>
