<svg width="372" height="104" viewBox="0 0 372 104" fill="none" xmlns="http://www.w3.org/2000/svg">
<path d="M1 19.33C28.207 31.8478 55.5429 36.4305 85.4596 37.5666C114.361 38.6641 143.359 38.2389 172.272 38.2389C204.647 38.2389 237.73 39.6859 269.926 35.4236C275.699 34.6593 315.563 29.7296 307.618 14.5398C302.477 4.71252 284.831 1.56981 275.136 1.09348C258.793 0.290493 241.798 4.5975 229.923 16.4727C216.142 30.2536 222.251 50.3711 238.621 58.7445C263.082 71.2562 293.625 70.78 320.182 74.67C330.962 76.2491 342.438 77.9311 352.369 82.7798C356.208 84.6542 360.978 88.0838 363.882 91.2677C371.272 99.3695 364.586 93.8303 370.857 102.529" stroke="#C4C4C4" stroke-linecap="round"/>
</svg>
