<svg width="1934" height="1031" viewBox="0 0 1934 1031" fill="none" xmlns="http://www.w3.org/2000/svg">
<path d="M1 202.838C76.1516 239.325 241.101 304.088 299.684 271.25C372.914 230.203 303.721 56.0638 259.322 21.8579C214.923 -12.348 178.596 -17.9454 231.068 111.415C283.539 240.776 363.688 353.966 395.402 340.284C427.115 326.601 311.216 144.377 430.575 158.059C549.933 171.742 537.824 340.284 513.607 340.284C489.389 340.284 320.442 102.708 331.398 71.6117C342.353 40.5154 569.538 110.171 732.142 254.458C894.746 398.745 1004.88 350.235 957.02 271.25C909.162 192.265 897.053 152.462 927.037 140.646C957.02 128.829 1821.36 210.301 1919.96 401.855C2018.56 593.408 1530.17 533.081 1389.48 596.517C1248.79 659.954 1376.79 886.335 1189.39 904.993C1002 923.651 713.114 798.021 498.615 793.046C327.016 789.066 111.517 949.357 25.2176 1030" stroke="#C4C4C4" stroke-width="2"/>
</svg>
