<svg width="198" height="54" viewBox="0 0 198 54" fill="none" xmlns="http://www.w3.org/2000/svg">
<path d="M65.8397 7.47678C68.4904 6.48125 71.1934 6 74.2057 6C81.7913 6 88.575 9.45368 93.003 14.8677C93.586 15.5825 93.9714 16.5073 93.9714 17.4863C93.9714 18.8522 93.3742 19.9751 92.3439 20.7253L92.2963 20.8126C91.6039 21.3198 90.7331 21.617 89.8051 21.617C88.494 21.617 87.3162 21.0202 86.5501 20.0789C85.6507 18.9749 84.6251 18.0265 83.4568 17.1914C80.8561 15.3443 77.6535 14.2567 74.2057 14.2567C72.2284 14.2567 70.4534 14.587 68.714 15.2452C65.409 16.4813 62.5419 18.7956 60.7026 21.7279C59.2107 24.1295 58.3327 26.958 58.3327 29.9752C58.3327 32.1951 58.8228 34.2994 59.6509 36.2055C60.7597 38.7651 62.5085 40.9732 64.7262 42.6175C67.3721 44.5732 70.6461 45.7338 74.2057 45.7338C79.1644 45.7338 83.6543 43.3865 86.562 39.8527C87.3305 38.8925 88.5012 38.2862 89.8218 38.2862C92.125 38.2862 94 40.1357 94 42.424C94 43.4031 93.6526 44.3066 93.0673 45.0214C88.6321 50.5039 81.8507 54 74.2081 54C60.8453 54 50 43.2521 50 29.9776C50 25.3066 51.3705 20.9306 53.7119 17.2315C56.4982 12.8319 60.8668 9.34044 65.8397 7.47678Z" fill="#363A48"/>
<path d="M114.836 7.48142C117.498 6.4883 120.191 6 123.205 6C130.793 6 137.571 9.45823 142.008 14.8791C142.584 15.5868 142.962 16.5044 142.962 17.4975C142.962 18.8539 142.365 19.9768 141.344 20.7364L141.297 20.8166C140.602 21.3238 139.731 21.621 138.798 21.621C137.483 21.621 136.322 21.0195 135.56 20.0782C134.663 18.9813 133.621 18.0212 132.465 17.205C129.86 15.3462 126.66 14.2587 123.205 14.2587C121.233 14.2587 119.458 14.6055 117.719 15.2565C114.419 16.4926 111.543 18.7997 109.706 21.7389C108.217 24.138 107.329 26.9687 107.329 30.0094C107.329 32.208 107.831 34.3051 108.662 36.2111C109.768 38.7682 111.51 40.9739 113.736 42.618C116.377 44.5831 119.661 45.7366 123.205 45.7366C128.178 45.7366 132.651 43.3965 135.568 39.851C136.334 38.9003 137.507 38.2846 138.825 38.2846C141.142 38.2846 143 40.1341 143 42.4199C143 43.4036 142.65 44.3141 142.07 45.0171C137.63 50.4993 130.84 54 123.205 54C109.842 54 99 43.255 99 30.0094C99 25.3057 100.366 20.9298 102.711 17.2333C105.512 12.8292 109.868 9.34028 114.836 7.48142Z" fill="#363A48"/>
<path d="M154.307 45.0181C158.706 50.5012 165.429 54 173.017 54C186.263 54 197 43.251 197 29.9776C197 25.3038 195.665 20.9297 193.339 17.2279C192.603 16.0671 191.304 15.2626 189.82 15.2626C187.553 15.2626 185.697 17.117 185.697 19.4008C185.697 20.2101 185.994 21.0925 186.39 21.7318C187.886 24.1336 188.744 26.9624 188.744 29.9799C188.744 32.1953 188.256 34.3045 187.428 36.2109C186.322 38.7707 184.593 40.9767 182.411 42.6234C179.77 44.5793 176.522 45.7401 173.014 45.7401C168.084 45.7401 163.634 43.3926 160.758 39.8607C158.541 37.1475 157.256 33.769 157.256 29.9823C157.256 24.7258 159.848 20.0591 163.827 17.1949C166.398 15.3499 169.58 14.2599 173.012 14.2599C174.951 14.2599 176.736 14.5902 178.46 15.2485C178.902 15.4042 179.38 15.4915 179.866 15.4915C182.149 15.4915 183.999 13.6418 183.999 11.3603C183.999 9.58142 182.874 8.06203 181.296 7.48164C178.675 6.48602 175.986 6 173.014 6C165.48 6 158.753 9.45638 154.347 14.871C151.003 19.0021 149 24.2657 149 29.9823C149.002 35.6753 151.005 40.9012 154.307 45.0181Z" fill="#363A48"/>
<path d="M15.8412 7.47906C14.2566 8.06408 13.1193 9.58325 13.1193 11.3713C13.1193 13.6524 14.9823 15.5042 17.2878 15.5042C17.7851 15.5042 18.2705 15.4169 18.7059 15.2518C20.4499 14.5984 22.2439 14.2658 24.2187 14.2658C27.652 14.2658 30.8949 15.4217 33.5002 17.2734L9.64322 36.2158C8.81761 34.3074 8.34175 32.208 8.34175 30.0212C8.34175 26.9735 9.20305 24.1404 10.6996 21.7389C11.1089 21.0973 11.411 20.2174 11.411 19.4036C11.411 17.1201 9.5528 15.2778 7.24728 15.2778C5.76023 15.2778 4.44687 16.0775 3.71405 17.2333C1.36809 20.9298 0 25.3057 0 30.0189C0 43.255 10.8424 54 24.2187 54C31.8514 54 38.6442 50.504 43.0816 45.0195C43.6621 44.3118 44 43.4107 44 42.4223C44 40.1364 42.1299 38.2917 39.8315 38.2917C38.5158 38.2917 37.3309 38.8933 36.5743 39.8581C33.6597 43.3989 29.1723 45.7389 24.2187 45.7389C20.6617 45.7389 17.3901 44.5618 14.7444 42.611L42.3226 20.7387C43.3481 19.9744 43.9786 18.8563 43.9786 17.4928C43.9786 16.5139 43.5908 15.5821 43.0126 14.8815C38.58 9.45823 31.7967 6 24.2163 6C21.2041 6.00236 18.4989 6.48594 15.8412 7.47906Z" fill="#363A48"/>
<path d="M188.963 5C188.963 2.77471 190.778 0.963218 193.002 0.963218C195.224 0.963218 197.037 2.77241 197.037 5C197.037 7.22989 195.224 9.03678 193.002 9.03678C190.778 9.03678 188.963 7.22759 188.963 5ZM188 5C188 7.75862 190.243 10 193.002 10C195.762 10 198 7.75862 198 5C198 2.24368 195.762 0 193.002 0C190.243 0 188 2.24368 188 5Z" fill="#363A48"/>
<path d="M191.005 3.0001H192.161C193.31 3.0001 194.679 2.96297 194.679 4.35274C194.679 4.94669 194.257 5.43392 193.568 5.51977V5.53369C193.879 5.55457 194.033 5.82835 194.14 6.04876L195 8H193.802L193.153 6.43854C193.011 6.06732 192.872 5.92347 192.415 5.92347H192.069V8H191V3.0001H191.005ZM192.074 5.14159H192.427C192.952 5.14159 193.563 5.06734 193.563 4.43858C193.563 3.83535 192.956 3.78198 192.427 3.78198H192.074V5.14159Z" fill="#363A48"/>
</svg>
