<svg width="57" height="58" viewBox="0 0 57 58" fill="none" xmlns="http://www.w3.org/2000/svg">
<g clip-path="url(#clip0_104_1229)">
<path d="M1.69058e-05 29.0113C-0.016971 13.0022 12.771 0.00132957 28.4878 1.02052e-07C44.2439 -0.00132937 57.0048 12.9872 57 29.0224C56.9952 45.0244 44.216 58.0075 28.4769 58C12.7653 57.9925 0.0035016 45.0018 1.69058e-05 29.0113ZM28.1093 38.1966C28.2278 38.276 28.3284 38.3362 28.422 38.4062C29.7149 39.3745 31.0064 40.3446 32.2988 41.3138C33.2514 42.0282 34.1853 42.7709 35.1623 43.4489C36.2112 44.1766 37.352 44.1146 37.7567 42.5068C37.8904 41.9763 37.9906 41.437 38.103 40.9012C38.8665 37.266 39.6314 33.6308 40.3924 29.9951C41.0606 26.8022 41.7344 23.6101 42.38 20.4123C42.4963 19.8362 42.5568 19.2295 42.5189 18.6454C42.4684 17.8672 41.8316 17.3904 41.0732 17.4666C40.855 17.4883 40.635 17.5526 40.4294 17.6332C34.5429 19.9399 28.6586 22.2518 22.7734 24.5616C19.4869 25.8516 16.1964 27.131 12.9169 28.4392C12.5249 28.5956 12.152 28.8589 11.8384 29.1491C11.4673 29.4926 11.5169 29.953 11.9281 30.253C12.189 30.4436 12.4948 30.5934 12.8019 30.6926C14.9881 31.3986 17.1813 32.0815 19.3675 32.7866C19.6389 32.8739 19.8467 32.8566 20.0888 32.701C24.9221 29.5958 29.7593 26.4964 34.5987 23.4005C35.2124 23.0078 35.8296 22.6161 36.4717 22.2753C36.6363 22.188 36.902 22.2984 37.1211 22.3183C37.031 22.4929 36.9791 22.71 36.845 22.8359C35.516 24.0785 34.174 25.3065 32.835 26.538C29.8956 29.2409 26.9541 31.9415 24.02 34.65C23.8915 34.7684 23.7517 34.9496 23.7399 35.1114C23.5709 37.383 23.4224 39.6564 23.2717 41.9298C23.2651 42.0313 23.2817 42.1345 23.2882 42.2484C23.8026 42.2648 24.1777 42.0459 24.5092 41.7215C25.3873 40.8613 26.2663 40.0016 27.1449 39.1414C27.4642 38.8286 27.7839 38.5161 28.1097 38.1975L28.1093 38.1966Z" fill="#363A48"/>
</g>
<defs>
<clipPath id="clip0_104_1229">
<rect width="57" height="58" fill="white"/>
</clipPath>
</defs>
</svg>
