<svg width="79" height="46" viewBox="0 0 79 46" fill="none" xmlns="http://www.w3.org/2000/svg">
<g clip-path="url(#clip0_104_1234)">
<path d="M0 2.45225C0 2.38783 0 2.32379 0 2.25937C0.0177615 2.15946 0.0424731 2.05994 0.0521261 1.95926C0.12433 1.21361 0.457937 0.645018 1.15681 0.322148C1.66842 0.0856847 2.21594 0.00737794 2.76925 0.00583495C5.63773 -0.00265149 8.50621 0.000820235 11.3751 0.00274897C11.638 0.00274897 11.901 0.0204934 12.1635 0.0343803C13.3238 0.0960999 14.1775 0.643861 14.7536 1.64796C15.1841 2.39901 15.4591 3.21294 15.751 4.02069C16.7008 6.64648 17.7835 9.21633 19.0009 11.7299C20.5199 14.8664 22.2092 17.9053 24.2135 20.7621C25.1781 22.1369 26.2063 23.4604 27.438 24.6123C27.918 25.0609 28.4288 25.469 29.0308 25.7506C29.442 25.9427 29.8671 25.9948 30.3073 25.893C30.8641 25.7641 31.1343 25.351 31.2255 24.8403C31.3305 24.2501 31.4189 23.6475 31.4216 23.0496C31.4386 18.9646 31.4355 14.8791 31.4262 10.7936C31.4251 10.2058 31.3807 9.61519 31.3127 9.03078C31.1023 7.22047 30.4227 5.60727 29.2481 4.20161C28.891 3.7742 28.5385 3.33252 28.2566 2.85458C27.7763 2.0395 27.9651 1.12913 28.686 0.515022C29.0983 0.164377 29.5875 0.00313472 30.1246 0.00274897C34.6075 4.87397e-05 39.0907 0.000434487 43.5736 0.00274897C43.8041 0.00274897 44.0354 0.0162501 44.2651 0.0374662C45.1636 0.121559 45.7389 0.607601 45.9868 1.4763C46.1544 2.06341 46.1729 2.66788 46.1741 3.26887C46.1826 7.27062 46.1783 11.2724 46.1787 15.2741C46.1787 16.9058 46.1733 18.5371 46.1829 20.1689C46.1864 20.7417 46.3142 21.2918 46.6509 21.7693C46.9401 22.1798 47.3154 22.3992 47.8514 22.3275C48.3834 22.2561 48.8518 22.0517 49.2862 21.7589C50.1808 21.1552 50.9731 20.4273 51.7033 19.6408C52.9288 18.3204 54.0235 16.8915 55.051 15.413C57.8862 11.3341 60.2435 6.98979 62.2274 2.44222C62.9432 0.801632 64.1746 0.00236322 65.948 0.00159173C68.8937 4.87397e-05 71.8394 -0.00265149 74.7855 0.00660645C75.1357 0.00776369 75.4933 0.0463384 75.8342 0.125802C77.1335 0.427843 77.4999 1.24794 77.386 2.25667C77.3026 2.99731 77.0679 3.70708 76.7929 4.3995C76.0381 6.30316 75.0384 8.08339 73.9998 9.84124C71.5606 13.9691 68.8636 17.928 66.1036 21.8461C65.6982 22.422 65.3171 23.0191 64.9754 23.6344C64.6113 24.2898 64.646 24.9764 65.0426 25.6125C65.2854 26.0025 65.5538 26.3886 65.8712 26.7181C67.3705 28.2723 68.9049 29.7929 70.4 31.3509C72.4788 33.5173 74.4921 35.7422 76.2952 38.1474C77.1092 39.2325 77.8783 40.3477 78.4637 41.5774C78.8154 42.3162 79.0556 43.0799 78.9888 43.9135C78.9417 44.5014 78.7042 44.9886 78.2336 45.3493C77.6026 45.833 76.8563 45.9792 76.0918 45.9831C73.0816 45.9985 70.0718 45.9919 67.0616 45.9854C66.7751 45.9846 66.4855 45.9437 66.2025 45.8917C65.2538 45.7181 64.4518 45.2382 63.7772 44.5813C62.8065 43.6362 61.869 42.6556 60.9439 41.665C59.0971 39.6869 57.2538 37.7061 55.1911 35.9452C53.9976 34.926 52.7775 33.9427 51.4149 33.152C50.3488 32.5332 49.2352 32.0854 47.9653 32.1914C47.1073 32.2628 46.5374 32.4626 46.344 33.535C46.2262 34.1877 46.1636 34.8573 46.1544 35.5204C46.1312 37.1325 46.1559 38.7449 46.1563 40.3569C46.1563 41.358 46.1718 42.3601 46.1347 43.36C46.1042 44.1836 45.7304 44.8374 44.9798 45.2332C44.7593 45.3493 44.5269 45.4492 44.2902 45.5267C43.1855 45.8889 42.0349 45.9426 40.8881 45.9823C39.7321 46.0224 38.5733 46.0008 37.4265 45.8346C36.4002 45.686 35.3693 45.5402 34.3588 45.3115C31.6104 44.6897 29.0227 43.6377 26.5638 42.2691C22.4015 39.9523 18.8654 36.8879 15.81 33.2526C14.6015 31.8146 13.5153 30.2851 12.44 28.7483C9.43096 24.4483 6.71732 19.9729 4.42647 15.2475C3.05922 12.4273 1.84449 9.54537 0.920894 6.54657C0.591149 5.47496 0.293837 4.39487 0.121628 3.2843C0.0787683 3.00734 0.0405425 2.7296 0 2.45225Z" fill="#363A48"/>
</g>
<defs>
<clipPath id="clip0_104_1234">
<rect width="79" height="46" fill="white"/>
</clipPath>
</defs>
</svg>
